<mxfile host="app.diagrams.net" agent="Mozilla/5.0 (Windows NT 10.0; Win64; x64) AppleWebKit/537.36 (KHTML, like Gecko) Chrome/134.0.0.0 Safari/537.36" version="26.1.1" pages="2">
  <diagram name="Page-1" id="aSsKkRUofelpMtngspoU">
    <mxGraphModel dx="1535" dy="1936" grid="1" gridSize="10" guides="1" tooltips="1" connect="1" arrows="1" fold="1" page="1" pageScale="1" pageWidth="827" pageHeight="1169" math="0" shadow="0">
      <root>
        <mxCell id="0" />
        <mxCell id="1" parent="0" />
        <mxCell id="aV8l9yPTKgLbnBKoR6-c-1" value="user" style="rounded=0;whiteSpace=wrap;html=1;" vertex="1" parent="1">
          <mxGeometry x="140" y="170" width="120" height="60" as="geometry" />
        </mxCell>
        <mxCell id="aV8l9yPTKgLbnBKoR6-c-2" value="user_id" style="ellipse;whiteSpace=wrap;html=1;" vertex="1" parent="1">
          <mxGeometry x="30" y="50" width="110" height="60" as="geometry" />
        </mxCell>
        <mxCell id="aV8l9yPTKgLbnBKoR6-c-3" value="name" style="ellipse;whiteSpace=wrap;html=1;" vertex="1" parent="1">
          <mxGeometry x="180" y="50" width="110" height="60" as="geometry" />
        </mxCell>
        <mxCell id="aV8l9yPTKgLbnBKoR6-c-4" value="email(username)" style="ellipse;whiteSpace=wrap;html=1;" vertex="1" parent="1">
          <mxGeometry x="320" y="50" width="110" height="60" as="geometry" />
        </mxCell>
        <mxCell id="aV8l9yPTKgLbnBKoR6-c-5" value="password" style="ellipse;whiteSpace=wrap;html=1;" vertex="1" parent="1">
          <mxGeometry x="370" y="140" width="110" height="60" as="geometry" />
        </mxCell>
        <mxCell id="aV8l9yPTKgLbnBKoR6-c-6" value="about" style="ellipse;whiteSpace=wrap;html=1;" vertex="1" parent="1">
          <mxGeometry x="320" y="260" width="110" height="60" as="geometry" />
        </mxCell>
        <mxCell id="aV8l9yPTKgLbnBKoR6-c-7" value="" style="endArrow=none;html=1;rounded=0;entryX=0;entryY=0.5;entryDx=0;entryDy=0;exitX=0.5;exitY=1;exitDx=0;exitDy=0;" edge="1" parent="1" source="aV8l9yPTKgLbnBKoR6-c-2" target="aV8l9yPTKgLbnBKoR6-c-5">
          <mxGeometry width="50" height="50" relative="1" as="geometry">
            <mxPoint x="430" y="270" as="sourcePoint" />
            <mxPoint x="480" y="220" as="targetPoint" />
            <Array as="points">
              <mxPoint x="210" y="170" />
              <mxPoint x="200" y="170" />
            </Array>
          </mxGeometry>
        </mxCell>
        <mxCell id="aV8l9yPTKgLbnBKoR6-c-8" value="" style="endArrow=none;html=1;rounded=0;entryX=0.427;entryY=1.067;entryDx=0;entryDy=0;entryPerimeter=0;exitX=0.291;exitY=0.1;exitDx=0;exitDy=0;exitPerimeter=0;" edge="1" parent="1" source="aV8l9yPTKgLbnBKoR6-c-6" target="aV8l9yPTKgLbnBKoR6-c-3">
          <mxGeometry width="50" height="50" relative="1" as="geometry">
            <mxPoint x="430" y="270" as="sourcePoint" />
            <mxPoint x="480" y="220" as="targetPoint" />
            <Array as="points">
              <mxPoint x="200" y="170" />
            </Array>
          </mxGeometry>
        </mxCell>
        <mxCell id="aV8l9yPTKgLbnBKoR6-c-9" value="" style="endArrow=none;html=1;rounded=0;entryX=0.273;entryY=1;entryDx=0;entryDy=0;entryPerimeter=0;" edge="1" parent="1" target="aV8l9yPTKgLbnBKoR6-c-4">
          <mxGeometry width="50" height="50" relative="1" as="geometry">
            <mxPoint x="200" y="170" as="sourcePoint" />
            <mxPoint x="490" y="200" as="targetPoint" />
          </mxGeometry>
        </mxCell>
        <mxCell id="aV8l9yPTKgLbnBKoR6-c-10" value="post" style="rounded=0;whiteSpace=wrap;html=1;" vertex="1" parent="1">
          <mxGeometry x="760" y="170" width="120" height="60" as="geometry" />
        </mxCell>
        <mxCell id="aV8l9yPTKgLbnBKoR6-c-11" value="post_id" style="ellipse;whiteSpace=wrap;html=1;" vertex="1" parent="1">
          <mxGeometry x="610" y="30" width="110" height="60" as="geometry" />
        </mxCell>
        <mxCell id="Fv598-LZOToHp-diyYWw-1" value="post" style="ellipse;whiteSpace=wrap;html=1;" vertex="1" parent="1">
          <mxGeometry x="730" y="30" width="110" height="60" as="geometry" />
        </mxCell>
        <mxCell id="Fv598-LZOToHp-diyYWw-2" value="likes" style="ellipse;whiteSpace=wrap;html=1;" vertex="1" parent="1">
          <mxGeometry x="850" y="30" width="110" height="60" as="geometry" />
        </mxCell>
        <mxCell id="Fv598-LZOToHp-diyYWw-3" value="content" style="ellipse;whiteSpace=wrap;html=1;" vertex="1" parent="1">
          <mxGeometry x="970" y="40" width="110" height="60" as="geometry" />
        </mxCell>
        <mxCell id="Fv598-LZOToHp-diyYWw-4" value="title" style="ellipse;whiteSpace=wrap;html=1;" vertex="1" parent="1">
          <mxGeometry x="990" y="120" width="110" height="60" as="geometry" />
        </mxCell>
        <mxCell id="Fv598-LZOToHp-diyYWw-5" value="image" style="ellipse;whiteSpace=wrap;html=1;" vertex="1" parent="1">
          <mxGeometry x="1000" y="200" width="110" height="60" as="geometry" />
        </mxCell>
        <mxCell id="Fv598-LZOToHp-diyYWw-6" value="user_id" style="ellipse;whiteSpace=wrap;html=1;fillColor=#d5e8d4;strokeColor=#82b366;" vertex="1" parent="1">
          <mxGeometry x="900" y="260" width="110" height="60" as="geometry" />
        </mxCell>
        <mxCell id="Fv598-LZOToHp-diyYWw-7" value="" style="endArrow=none;html=1;rounded=0;exitX=0.5;exitY=0;exitDx=0;exitDy=0;" edge="1" parent="1" source="aV8l9yPTKgLbnBKoR6-c-10">
          <mxGeometry width="50" height="50" relative="1" as="geometry">
            <mxPoint x="580" y="270" as="sourcePoint" />
            <mxPoint x="830" y="170" as="targetPoint" />
            <Array as="points">
              <mxPoint x="1000" y="100" />
              <mxPoint x="830" y="170" />
              <mxPoint x="790" y="90" />
              <mxPoint x="730" y="90" />
              <mxPoint x="670" y="90" />
            </Array>
          </mxGeometry>
        </mxCell>
        <mxCell id="Fv598-LZOToHp-diyYWw-8" value="" style="endArrow=none;html=1;rounded=0;" edge="1" parent="1">
          <mxGeometry width="50" height="50" relative="1" as="geometry">
            <mxPoint x="830" y="170" as="sourcePoint" />
            <mxPoint x="830" y="170" as="targetPoint" />
            <Array as="points">
              <mxPoint x="820" y="170" />
              <mxPoint x="990" y="160" />
            </Array>
          </mxGeometry>
        </mxCell>
        <mxCell id="Fv598-LZOToHp-diyYWw-9" value="" style="endArrow=none;html=1;rounded=0;exitX=0.064;exitY=0.383;exitDx=0;exitDy=0;exitPerimeter=0;" edge="1" parent="1" source="Fv598-LZOToHp-diyYWw-5">
          <mxGeometry width="50" height="50" relative="1" as="geometry">
            <mxPoint x="780" y="220" as="sourcePoint" />
            <mxPoint x="830" y="170" as="targetPoint" />
          </mxGeometry>
        </mxCell>
        <mxCell id="Fv598-LZOToHp-diyYWw-10" value="" style="endArrow=none;html=1;rounded=0;exitX=0.3;exitY=0.017;exitDx=0;exitDy=0;exitPerimeter=0;" edge="1" parent="1" source="Fv598-LZOToHp-diyYWw-6">
          <mxGeometry width="50" height="50" relative="1" as="geometry">
            <mxPoint x="777" y="225" as="sourcePoint" />
            <mxPoint x="827" y="175" as="targetPoint" />
          </mxGeometry>
        </mxCell>
        <mxCell id="Fv598-LZOToHp-diyYWw-11" value="can have" style="rhombus;whiteSpace=wrap;html=1;" vertex="1" parent="1">
          <mxGeometry x="550" y="240" width="80" height="80" as="geometry" />
        </mxCell>
        <mxCell id="Fv598-LZOToHp-diyYWw-12" value="" style="endArrow=none;html=1;rounded=0;entryX=0.5;entryY=0;entryDx=0;entryDy=0;" edge="1" parent="1" target="Fv598-LZOToHp-diyYWw-11">
          <mxGeometry width="50" height="50" relative="1" as="geometry">
            <mxPoint x="260" y="210" as="sourcePoint" />
            <mxPoint x="630" y="220" as="targetPoint" />
            <Array as="points">
              <mxPoint x="550" y="280" />
            </Array>
          </mxGeometry>
        </mxCell>
        <mxCell id="Fv598-LZOToHp-diyYWw-13" value="1" style="text;html=1;align=center;verticalAlign=middle;whiteSpace=wrap;rounded=0;" vertex="1" parent="1">
          <mxGeometry x="440" y="210" width="60" height="30" as="geometry" />
        </mxCell>
        <mxCell id="Fv598-LZOToHp-diyYWw-14" value="n" style="text;html=1;align=center;verticalAlign=middle;resizable=0;points=[];autosize=1;strokeColor=none;fillColor=none;" vertex="1" parent="1">
          <mxGeometry x="680" y="210" width="30" height="30" as="geometry" />
        </mxCell>
        <mxCell id="Fv598-LZOToHp-diyYWw-15" value="" style="endArrow=none;html=1;rounded=0;entryX=0;entryY=0.5;entryDx=0;entryDy=0;" edge="1" parent="1" target="aV8l9yPTKgLbnBKoR6-c-10">
          <mxGeometry width="50" height="50" relative="1" as="geometry">
            <mxPoint x="630" y="280" as="sourcePoint" />
            <mxPoint x="680" y="230" as="targetPoint" />
          </mxGeometry>
        </mxCell>
        <mxCell id="Fv598-LZOToHp-diyYWw-16" value="comment" style="rounded=0;whiteSpace=wrap;html=1;" vertex="1" parent="1">
          <mxGeometry x="760" y="610" width="120" height="60" as="geometry" />
        </mxCell>
        <mxCell id="Fv598-LZOToHp-diyYWw-17" value="user_id" style="ellipse;whiteSpace=wrap;html=1;fillColor=#d5e8d4;strokeColor=#82b366;" vertex="1" parent="1">
          <mxGeometry x="600" y="510" width="110" height="60" as="geometry" />
        </mxCell>
        <mxCell id="Fv598-LZOToHp-diyYWw-18" value="comment_id" style="ellipse;whiteSpace=wrap;html=1;" vertex="1" parent="1">
          <mxGeometry x="730" y="470" width="110" height="60" as="geometry" />
        </mxCell>
        <mxCell id="Fv598-LZOToHp-diyYWw-19" value="comment" style="ellipse;whiteSpace=wrap;html=1;" vertex="1" parent="1">
          <mxGeometry x="870" y="480" width="110" height="60" as="geometry" />
        </mxCell>
        <mxCell id="Fv598-LZOToHp-diyYWw-20" value="post_id" style="ellipse;whiteSpace=wrap;html=1;fillColor=#d5e8d4;strokeColor=#82b366;" vertex="1" parent="1">
          <mxGeometry x="990" y="550" width="110" height="60" as="geometry" />
        </mxCell>
        <mxCell id="Fv598-LZOToHp-diyYWw-21" value="" style="endArrow=none;html=1;rounded=0;entryX=0.273;entryY=1;entryDx=0;entryDy=0;entryPerimeter=0;" edge="1" parent="1" target="Fv598-LZOToHp-diyYWw-19">
          <mxGeometry width="50" height="50" relative="1" as="geometry">
            <mxPoint x="827" y="610" as="sourcePoint" />
            <mxPoint x="877" y="560" as="targetPoint" />
          </mxGeometry>
        </mxCell>
        <mxCell id="Fv598-LZOToHp-diyYWw-22" value="" style="endArrow=none;html=1;rounded=0;entryX=1;entryY=1;entryDx=0;entryDy=0;exitX=0.5;exitY=0;exitDx=0;exitDy=0;" edge="1" parent="1" source="Fv598-LZOToHp-diyYWw-16" target="Fv598-LZOToHp-diyYWw-17">
          <mxGeometry width="50" height="50" relative="1" as="geometry">
            <mxPoint x="760" y="600" as="sourcePoint" />
            <mxPoint x="810" y="550" as="targetPoint" />
          </mxGeometry>
        </mxCell>
        <mxCell id="Fv598-LZOToHp-diyYWw-23" value="" style="endArrow=none;html=1;rounded=0;exitX=0.558;exitY=0;exitDx=0;exitDy=0;exitPerimeter=0;" edge="1" parent="1" source="Fv598-LZOToHp-diyYWw-16">
          <mxGeometry width="50" height="50" relative="1" as="geometry">
            <mxPoint x="940" y="630" as="sourcePoint" />
            <mxPoint x="990" y="580" as="targetPoint" />
          </mxGeometry>
        </mxCell>
        <mxCell id="Fv598-LZOToHp-diyYWw-24" value="" style="endArrow=none;html=1;rounded=0;entryX=0.5;entryY=1;entryDx=0;entryDy=0;" edge="1" parent="1" target="Fv598-LZOToHp-diyYWw-18">
          <mxGeometry width="50" height="50" relative="1" as="geometry">
            <mxPoint x="830" y="610" as="sourcePoint" />
            <mxPoint x="840" y="540" as="targetPoint" />
          </mxGeometry>
        </mxCell>
        <mxCell id="Fv598-LZOToHp-diyYWw-25" value="has" style="rhombus;whiteSpace=wrap;html=1;" vertex="1" parent="1">
          <mxGeometry x="300" y="460" width="100" height="100" as="geometry" />
        </mxCell>
        <mxCell id="Fv598-LZOToHp-diyYWw-26" value="" style="endArrow=none;html=1;rounded=0;exitX=0;exitY=0;exitDx=0;exitDy=0;" edge="1" parent="1" source="Fv598-LZOToHp-diyYWw-25">
          <mxGeometry width="50" height="50" relative="1" as="geometry">
            <mxPoint x="150" y="280" as="sourcePoint" />
            <mxPoint x="200" y="230" as="targetPoint" />
          </mxGeometry>
        </mxCell>
        <mxCell id="Fv598-LZOToHp-diyYWw-27" value="1" style="text;html=1;align=center;verticalAlign=middle;whiteSpace=wrap;rounded=0;" vertex="1" parent="1">
          <mxGeometry x="260" y="370" width="60" height="30" as="geometry" />
        </mxCell>
        <mxCell id="Fv598-LZOToHp-diyYWw-28" value="" style="endArrow=none;html=1;rounded=0;exitX=1;exitY=1;exitDx=0;exitDy=0;entryX=-0.033;entryY=0.617;entryDx=0;entryDy=0;entryPerimeter=0;" edge="1" parent="1" source="Fv598-LZOToHp-diyYWw-25" target="Fv598-LZOToHp-diyYWw-16">
          <mxGeometry width="50" height="50" relative="1" as="geometry">
            <mxPoint x="430" y="570" as="sourcePoint" />
            <mxPoint x="480" y="520" as="targetPoint" />
          </mxGeometry>
        </mxCell>
        <mxCell id="Fv598-LZOToHp-diyYWw-29" value="n" style="text;html=1;align=center;verticalAlign=middle;whiteSpace=wrap;rounded=0;" vertex="1" parent="1">
          <mxGeometry x="470" y="540" width="60" height="30" as="geometry" />
        </mxCell>
        <mxCell id="Fv598-LZOToHp-diyYWw-30" value="category" style="rounded=0;whiteSpace=wrap;html=1;" vertex="1" parent="1">
          <mxGeometry x="770" y="-260" width="120" height="60" as="geometry" />
        </mxCell>
        <mxCell id="Fv598-LZOToHp-diyYWw-31" value="category_id" style="ellipse;whiteSpace=wrap;html=1;" vertex="1" parent="1">
          <mxGeometry x="620" y="-360" width="110" height="60" as="geometry" />
        </mxCell>
        <mxCell id="Fv598-LZOToHp-diyYWw-32" value="category" style="ellipse;whiteSpace=wrap;html=1;" vertex="1" parent="1">
          <mxGeometry x="770" y="-410" width="110" height="60" as="geometry" />
        </mxCell>
        <mxCell id="Fv598-LZOToHp-diyYWw-34" value="category_id" style="ellipse;whiteSpace=wrap;html=1;fillColor=#d5e8d4;strokeColor=#82b366;" vertex="1" parent="1">
          <mxGeometry x="775" y="320" width="110" height="60" as="geometry" />
        </mxCell>
        <mxCell id="Fv598-LZOToHp-diyYWw-35" value="" style="endArrow=none;html=1;rounded=0;entryX=0.565;entryY=1.055;entryDx=0;entryDy=0;entryPerimeter=0;" edge="1" parent="1" target="aV8l9yPTKgLbnBKoR6-c-10">
          <mxGeometry width="50" height="50" relative="1" as="geometry">
            <mxPoint x="830" y="320" as="sourcePoint" />
            <mxPoint x="880" y="270" as="targetPoint" />
          </mxGeometry>
        </mxCell>
        <mxCell id="Fv598-LZOToHp-diyYWw-36" value="" style="endArrow=none;html=1;rounded=0;entryX=0.5;entryY=1;entryDx=0;entryDy=0;" edge="1" parent="1" target="Fv598-LZOToHp-diyYWw-32">
          <mxGeometry width="50" height="50" relative="1" as="geometry">
            <mxPoint x="830" y="-260" as="sourcePoint" />
            <mxPoint x="880" y="-310" as="targetPoint" />
          </mxGeometry>
        </mxCell>
        <mxCell id="Fv598-LZOToHp-diyYWw-37" value="" style="endArrow=none;html=1;rounded=0;entryX=0.626;entryY=1.011;entryDx=0;entryDy=0;entryPerimeter=0;" edge="1" parent="1" target="Fv598-LZOToHp-diyYWw-31">
          <mxGeometry width="50" height="50" relative="1" as="geometry">
            <mxPoint x="830" y="-260" as="sourcePoint" />
            <mxPoint x="660" y="-250" as="targetPoint" />
          </mxGeometry>
        </mxCell>
        <mxCell id="Fv598-LZOToHp-diyYWw-38" value="ccontains" style="rhombus;whiteSpace=wrap;html=1;" vertex="1" parent="1">
          <mxGeometry x="1170" y="-150" width="80" height="80" as="geometry" />
        </mxCell>
        <mxCell id="Fv598-LZOToHp-diyYWw-40" value="" style="endArrow=none;html=1;rounded=0;entryX=0;entryY=0;entryDx=0;entryDy=0;" edge="1" parent="1" target="Fv598-LZOToHp-diyYWw-38">
          <mxGeometry width="50" height="50" relative="1" as="geometry">
            <mxPoint x="890" y="-230" as="sourcePoint" />
            <mxPoint x="940" y="-280" as="targetPoint" />
          </mxGeometry>
        </mxCell>
        <mxCell id="Fv598-LZOToHp-diyYWw-41" value="1" style="text;html=1;align=center;verticalAlign=middle;whiteSpace=wrap;rounded=0;" vertex="1" parent="1">
          <mxGeometry x="1015" y="-220" width="60" height="30" as="geometry" />
        </mxCell>
        <mxCell id="Fv598-LZOToHp-diyYWw-42" value="" style="endArrow=none;html=1;rounded=0;entryX=0.5;entryY=1;entryDx=0;entryDy=0;" edge="1" parent="1" target="Fv598-LZOToHp-diyYWw-38">
          <mxGeometry width="50" height="50" relative="1" as="geometry">
            <mxPoint x="840" y="170" as="sourcePoint" />
            <mxPoint x="1270" y="-60" as="targetPoint" />
            <Array as="points">
              <mxPoint x="1160" y="190" />
            </Array>
          </mxGeometry>
        </mxCell>
        <mxCell id="Fv598-LZOToHp-diyYWw-43" value="n" style="text;html=1;align=center;verticalAlign=middle;whiteSpace=wrap;rounded=0;" vertex="1" parent="1">
          <mxGeometry x="1181" y="10" width="60" height="30" as="geometry" />
        </mxCell>
      </root>
    </mxGraphModel>
  </diagram>
  <diagram id="6IEhvPylVgaLEHV0lZT1" name="Page-2">
    <mxGraphModel dx="880" dy="460" grid="1" gridSize="10" guides="1" tooltips="1" connect="1" arrows="1" fold="1" page="1" pageScale="1" pageWidth="827" pageHeight="1169" math="0" shadow="0">
      <root>
        <mxCell id="0" />
        <mxCell id="1" parent="0" />
      </root>
    </mxGraphModel>
  </diagram>
</mxfile>
